<mxfile host="app.diagrams.net" modified="2023-12-09T14:02:20.826Z" agent="Mozilla/5.0 (Windows NT 10.0; Win64; x64) AppleWebKit/537.36 (KHTML, like Gecko) Chrome/120.0.0.0 Safari/537.36" etag="L4EA2WLeiUQS2q7BvCUN" version="22.1.7" type="device">
  <diagram id="prtHgNgQTEPvFCAcTncT" name="Page-1">
    <mxGraphModel dx="2309" dy="1198" grid="1" gridSize="10" guides="1" tooltips="1" connect="1" arrows="1" fold="1" page="0" pageScale="1" pageWidth="827" pageHeight="1169" background="none" math="0" shadow="0">
      <root>
        <mxCell id="0" />
        <mxCell id="1" parent="0" />
        <mxCell id="fmLMYGZMvI3gfzhZE83x-3" value="Hierarchy Chart" style="swimlane;startSize=20;horizontal=1;containerType=tree;newEdgeStyle={&quot;edgeStyle&quot;:&quot;elbowEdgeStyle&quot;,&quot;startArrow&quot;:&quot;none&quot;,&quot;endArrow&quot;:&quot;none&quot;};rounded=0;editable=0;movable=1;resizable=1;rotatable=1;deletable=1;locked=0;connectable=1;" vertex="1" parent="1">
          <mxGeometry x="-650" y="-20" width="1730" height="1160" as="geometry" />
        </mxCell>
        <mxCell id="fmLMYGZMvI3gfzhZE83x-4" value="" style="edgeStyle=elbowEdgeStyle;elbow=vertical;sourcePerimeterSpacing=0;targetPerimeterSpacing=0;startArrow=none;endArrow=none;rounded=0;curved=0;" edge="1" parent="fmLMYGZMvI3gfzhZE83x-3" source="fmLMYGZMvI3gfzhZE83x-6" target="fmLMYGZMvI3gfzhZE83x-7">
          <mxGeometry relative="1" as="geometry" />
        </mxCell>
        <UserObject label="Main" treeRoot="1" id="fmLMYGZMvI3gfzhZE83x-6">
          <mxCell style="whiteSpace=wrap;html=1;align=center;treeFolding=1;treeMoving=1;newEdgeStyle={&quot;edgeStyle&quot;:&quot;elbowEdgeStyle&quot;,&quot;startArrow&quot;:&quot;none&quot;,&quot;endArrow&quot;:&quot;none&quot;};" vertex="1" parent="fmLMYGZMvI3gfzhZE83x-3">
            <mxGeometry x="710" y="50" width="120" height="60" as="geometry" />
          </mxCell>
        </UserObject>
        <mxCell id="fmLMYGZMvI3gfzhZE83x-7" value="Puzzle (Class)" style="whiteSpace=wrap;html=1;align=center;verticalAlign=middle;treeFolding=1;treeMoving=1;newEdgeStyle={&quot;edgeStyle&quot;:&quot;elbowEdgeStyle&quot;,&quot;startArrow&quot;:&quot;none&quot;,&quot;endArrow&quot;:&quot;none&quot;};rounded=1;" vertex="1" parent="fmLMYGZMvI3gfzhZE83x-3">
          <mxGeometry x="720" y="130" width="100" height="60" as="geometry" />
        </mxCell>
        <mxCell id="fmLMYGZMvI3gfzhZE83x-9" value="" style="edgeStyle=elbowEdgeStyle;elbow=vertical;sourcePerimeterSpacing=0;targetPerimeterSpacing=0;startArrow=none;endArrow=none;rounded=0;curved=0;" edge="1" target="fmLMYGZMvI3gfzhZE83x-10" source="fmLMYGZMvI3gfzhZE83x-7" parent="fmLMYGZMvI3gfzhZE83x-3">
          <mxGeometry relative="1" as="geometry">
            <mxPoint x="760" y="170" as="sourcePoint" />
          </mxGeometry>
        </mxCell>
        <mxCell id="fmLMYGZMvI3gfzhZE83x-10" value="Init" style="whiteSpace=wrap;html=1;align=center;verticalAlign=middle;treeFolding=1;treeMoving=1;newEdgeStyle={&quot;edgeStyle&quot;:&quot;elbowEdgeStyle&quot;,&quot;startArrow&quot;:&quot;none&quot;,&quot;endArrow&quot;:&quot;none&quot;};" vertex="1" parent="fmLMYGZMvI3gfzhZE83x-3">
          <mxGeometry x="720" y="215" width="100" height="60" as="geometry" />
        </mxCell>
        <mxCell id="fmLMYGZMvI3gfzhZE83x-13" value="" style="edgeStyle=elbowEdgeStyle;elbow=vertical;sourcePerimeterSpacing=0;targetPerimeterSpacing=0;startArrow=none;endArrow=none;rounded=0;curved=0;" edge="1" target="fmLMYGZMvI3gfzhZE83x-14" source="fmLMYGZMvI3gfzhZE83x-7" parent="fmLMYGZMvI3gfzhZE83x-3">
          <mxGeometry relative="1" as="geometry">
            <mxPoint x="760" y="260" as="sourcePoint" />
          </mxGeometry>
        </mxCell>
        <mxCell id="fmLMYGZMvI3gfzhZE83x-14" value="Attempt Puzzle" style="whiteSpace=wrap;html=1;align=center;verticalAlign=middle;treeFolding=1;treeMoving=1;newEdgeStyle={&quot;edgeStyle&quot;:&quot;elbowEdgeStyle&quot;,&quot;startArrow&quot;:&quot;none&quot;,&quot;endArrow&quot;:&quot;none&quot;};" vertex="1" parent="fmLMYGZMvI3gfzhZE83x-3">
          <mxGeometry x="500" y="215" width="100" height="60" as="geometry" />
        </mxCell>
        <mxCell id="fmLMYGZMvI3gfzhZE83x-15" value="" style="edgeStyle=elbowEdgeStyle;elbow=vertical;sourcePerimeterSpacing=0;targetPerimeterSpacing=0;startArrow=none;endArrow=none;rounded=0;curved=0;" edge="1" target="fmLMYGZMvI3gfzhZE83x-16" source="fmLMYGZMvI3gfzhZE83x-7" parent="fmLMYGZMvI3gfzhZE83x-3">
          <mxGeometry relative="1" as="geometry">
            <mxPoint x="779" y="200" as="sourcePoint" />
          </mxGeometry>
        </mxCell>
        <mxCell id="fmLMYGZMvI3gfzhZE83x-16" value="Get Cell" style="whiteSpace=wrap;html=1;align=center;verticalAlign=middle;treeFolding=1;treeMoving=1;newEdgeStyle={&quot;edgeStyle&quot;:&quot;elbowEdgeStyle&quot;,&quot;startArrow&quot;:&quot;none&quot;,&quot;endArrow&quot;:&quot;none&quot;};" vertex="1" parent="fmLMYGZMvI3gfzhZE83x-3">
          <mxGeometry x="390" y="215" width="100" height="60" as="geometry" />
        </mxCell>
        <mxCell id="fmLMYGZMvI3gfzhZE83x-17" value="" style="edgeStyle=elbowEdgeStyle;elbow=vertical;sourcePerimeterSpacing=0;targetPerimeterSpacing=0;startArrow=none;endArrow=none;rounded=0;curved=0;" edge="1" target="fmLMYGZMvI3gfzhZE83x-18" source="fmLMYGZMvI3gfzhZE83x-7" parent="fmLMYGZMvI3gfzhZE83x-3">
          <mxGeometry relative="1" as="geometry">
            <mxPoint x="779" y="200" as="sourcePoint" />
          </mxGeometry>
        </mxCell>
        <mxCell id="fmLMYGZMvI3gfzhZE83x-18" value="Check for match with pattern" style="whiteSpace=wrap;html=1;align=center;verticalAlign=middle;treeFolding=1;treeMoving=1;newEdgeStyle={&quot;edgeStyle&quot;:&quot;elbowEdgeStyle&quot;,&quot;startArrow&quot;:&quot;none&quot;,&quot;endArrow&quot;:&quot;none&quot;};" vertex="1" parent="fmLMYGZMvI3gfzhZE83x-3">
          <mxGeometry x="830" y="215" width="100" height="60" as="geometry" />
        </mxCell>
        <mxCell id="fmLMYGZMvI3gfzhZE83x-19" value="" style="edgeStyle=elbowEdgeStyle;elbow=vertical;sourcePerimeterSpacing=0;targetPerimeterSpacing=0;startArrow=none;endArrow=none;rounded=0;curved=0;entryX=0.5;entryY=0;entryDx=0;entryDy=0;" edge="1" target="fmLMYGZMvI3gfzhZE83x-20" source="fmLMYGZMvI3gfzhZE83x-7" parent="fmLMYGZMvI3gfzhZE83x-3">
          <mxGeometry relative="1" as="geometry">
            <mxPoint x="779" y="200" as="sourcePoint" />
            <mxPoint x="440" y="215" as="targetPoint" />
          </mxGeometry>
        </mxCell>
        <mxCell id="fmLMYGZMvI3gfzhZE83x-20" value="Get Symbol from user" style="whiteSpace=wrap;html=1;align=center;verticalAlign=middle;treeFolding=1;treeMoving=1;newEdgeStyle={&quot;edgeStyle&quot;:&quot;elbowEdgeStyle&quot;,&quot;startArrow&quot;:&quot;none&quot;,&quot;endArrow&quot;:&quot;none&quot;};" vertex="1" parent="fmLMYGZMvI3gfzhZE83x-3">
          <mxGeometry x="280" y="215" width="100" height="60" as="geometry" />
        </mxCell>
        <mxCell id="fmLMYGZMvI3gfzhZE83x-21" value="" style="edgeStyle=elbowEdgeStyle;elbow=vertical;sourcePerimeterSpacing=0;targetPerimeterSpacing=0;startArrow=none;endArrow=none;rounded=0;curved=0;" edge="1" target="fmLMYGZMvI3gfzhZE83x-22" source="fmLMYGZMvI3gfzhZE83x-7" parent="fmLMYGZMvI3gfzhZE83x-3">
          <mxGeometry relative="1" as="geometry">
            <mxPoint x="779" y="200" as="sourcePoint" />
          </mxGeometry>
        </mxCell>
        <mxCell id="fmLMYGZMvI3gfzhZE83x-22" value="Create Horizontal Line" style="whiteSpace=wrap;html=1;align=center;verticalAlign=middle;treeFolding=1;treeMoving=1;newEdgeStyle={&quot;edgeStyle&quot;:&quot;elbowEdgeStyle&quot;,&quot;startArrow&quot;:&quot;none&quot;,&quot;endArrow&quot;:&quot;none&quot;};" vertex="1" parent="fmLMYGZMvI3gfzhZE83x-3">
          <mxGeometry x="940" y="215" width="100" height="60" as="geometry" />
        </mxCell>
        <mxCell id="fmLMYGZMvI3gfzhZE83x-25" value="" style="edgeStyle=elbowEdgeStyle;elbow=vertical;sourcePerimeterSpacing=0;targetPerimeterSpacing=0;startArrow=none;endArrow=none;rounded=0;curved=0;" edge="1" target="fmLMYGZMvI3gfzhZE83x-26" source="fmLMYGZMvI3gfzhZE83x-7" parent="fmLMYGZMvI3gfzhZE83x-3">
          <mxGeometry relative="1" as="geometry">
            <mxPoint x="540" y="200" as="sourcePoint" />
          </mxGeometry>
        </mxCell>
        <mxCell id="fmLMYGZMvI3gfzhZE83x-26" value="Display Puzzle" style="whiteSpace=wrap;html=1;align=center;verticalAlign=middle;treeFolding=1;treeMoving=1;newEdgeStyle={&quot;edgeStyle&quot;:&quot;elbowEdgeStyle&quot;,&quot;startArrow&quot;:&quot;none&quot;,&quot;endArrow&quot;:&quot;none&quot;};" vertex="1" parent="fmLMYGZMvI3gfzhZE83x-3">
          <mxGeometry x="610" y="215" width="100" height="60" as="geometry" />
        </mxCell>
        <mxCell id="fmLMYGZMvI3gfzhZE83x-47" value="" style="edgeStyle=elbowEdgeStyle;elbow=vertical;sourcePerimeterSpacing=0;targetPerimeterSpacing=0;startArrow=none;endArrow=none;rounded=0;curved=0;" edge="1" target="fmLMYGZMvI3gfzhZE83x-48" source="fmLMYGZMvI3gfzhZE83x-10" parent="fmLMYGZMvI3gfzhZE83x-3">
          <mxGeometry relative="1" as="geometry">
            <mxPoint x="540" y="200" as="sourcePoint" />
          </mxGeometry>
        </mxCell>
        <mxCell id="fmLMYGZMvI3gfzhZE83x-48" value="Load Puzzle" style="whiteSpace=wrap;html=1;align=center;verticalAlign=middle;treeFolding=1;treeMoving=1;newEdgeStyle={&quot;edgeStyle&quot;:&quot;elbowEdgeStyle&quot;,&quot;startArrow&quot;:&quot;none&quot;,&quot;endArrow&quot;:&quot;none&quot;};" vertex="1" parent="fmLMYGZMvI3gfzhZE83x-3">
          <mxGeometry x="720" y="290" width="100" height="60" as="geometry" />
        </mxCell>
        <mxCell id="fmLMYGZMvI3gfzhZE83x-49" value="Cell&amp;nbsp;(Class)" style="whiteSpace=wrap;html=1;align=center;verticalAlign=middle;treeFolding=1;treeMoving=1;newEdgeStyle={&quot;edgeStyle&quot;:&quot;elbowEdgeStyle&quot;,&quot;startArrow&quot;:&quot;none&quot;,&quot;endArrow&quot;:&quot;none&quot;};rounded=1;" vertex="1" parent="fmLMYGZMvI3gfzhZE83x-3">
          <mxGeometry x="300" y="430" width="100" height="60" as="geometry" />
        </mxCell>
        <mxCell id="fmLMYGZMvI3gfzhZE83x-50" value="Pattern&amp;nbsp;(Class)" style="whiteSpace=wrap;html=1;align=center;verticalAlign=middle;treeFolding=1;treeMoving=1;newEdgeStyle={&quot;edgeStyle&quot;:&quot;elbowEdgeStyle&quot;,&quot;startArrow&quot;:&quot;none&quot;,&quot;endArrow&quot;:&quot;none&quot;};rounded=1;" vertex="1" parent="fmLMYGZMvI3gfzhZE83x-3">
          <mxGeometry x="1270" y="430" width="100" height="60" as="geometry" />
        </mxCell>
        <mxCell id="fmLMYGZMvI3gfzhZE83x-51" value="" style="edgeStyle=elbowEdgeStyle;rounded=0;orthogonalLoop=1;jettySize=auto;html=1;elbow=vertical;startArrow=none;endArrow=none;" edge="1" source="fmLMYGZMvI3gfzhZE83x-49" target="fmLMYGZMvI3gfzhZE83x-52" parent="fmLMYGZMvI3gfzhZE83x-3">
          <mxGeometry relative="1" as="geometry" />
        </mxCell>
        <mxCell id="fmLMYGZMvI3gfzhZE83x-52" value="Init" style="whiteSpace=wrap;html=1;align=center;verticalAlign=middle;treeFolding=1;treeMoving=1;newEdgeStyle={&quot;edgeStyle&quot;:&quot;elbowEdgeStyle&quot;,&quot;startArrow&quot;:&quot;none&quot;,&quot;endArrow&quot;:&quot;none&quot;};rounded=0;" vertex="1" parent="fmLMYGZMvI3gfzhZE83x-3">
          <mxGeometry x="300" y="530" width="100" height="60" as="geometry" />
        </mxCell>
        <mxCell id="fmLMYGZMvI3gfzhZE83x-53" value="" style="edgeStyle=elbowEdgeStyle;rounded=0;orthogonalLoop=1;jettySize=auto;html=1;elbow=vertical;startArrow=none;endArrow=none;" edge="1" target="fmLMYGZMvI3gfzhZE83x-54" source="fmLMYGZMvI3gfzhZE83x-49" parent="fmLMYGZMvI3gfzhZE83x-3">
          <mxGeometry relative="1" as="geometry">
            <mxPoint x="120" y="500" as="sourcePoint" />
          </mxGeometry>
        </mxCell>
        <mxCell id="fmLMYGZMvI3gfzhZE83x-54" value="Get Symbol" style="whiteSpace=wrap;html=1;align=center;verticalAlign=middle;treeFolding=1;treeMoving=1;newEdgeStyle={&quot;edgeStyle&quot;:&quot;elbowEdgeStyle&quot;,&quot;startArrow&quot;:&quot;none&quot;,&quot;endArrow&quot;:&quot;none&quot;};rounded=0;" vertex="1" parent="fmLMYGZMvI3gfzhZE83x-3">
          <mxGeometry x="410" y="530" width="100" height="60" as="geometry" />
        </mxCell>
        <mxCell id="fmLMYGZMvI3gfzhZE83x-55" value="" style="edgeStyle=elbowEdgeStyle;rounded=0;orthogonalLoop=1;jettySize=auto;html=1;elbow=vertical;startArrow=none;endArrow=none;" edge="1" target="fmLMYGZMvI3gfzhZE83x-56" source="fmLMYGZMvI3gfzhZE83x-49" parent="fmLMYGZMvI3gfzhZE83x-3">
          <mxGeometry relative="1" as="geometry">
            <mxPoint x="120" y="500" as="sourcePoint" />
          </mxGeometry>
        </mxCell>
        <mxCell id="fmLMYGZMvI3gfzhZE83x-56" value="Is Empty" style="whiteSpace=wrap;html=1;align=center;verticalAlign=middle;treeFolding=1;treeMoving=1;newEdgeStyle={&quot;edgeStyle&quot;:&quot;elbowEdgeStyle&quot;,&quot;startArrow&quot;:&quot;none&quot;,&quot;endArrow&quot;:&quot;none&quot;};rounded=0;" vertex="1" parent="fmLMYGZMvI3gfzhZE83x-3">
          <mxGeometry x="190" y="530" width="100" height="60" as="geometry" />
        </mxCell>
        <mxCell id="fmLMYGZMvI3gfzhZE83x-57" value="" style="edgeStyle=elbowEdgeStyle;rounded=0;orthogonalLoop=1;jettySize=auto;html=1;elbow=vertical;startArrow=none;endArrow=none;" edge="1" target="fmLMYGZMvI3gfzhZE83x-58" source="fmLMYGZMvI3gfzhZE83x-49" parent="fmLMYGZMvI3gfzhZE83x-3">
          <mxGeometry relative="1" as="geometry">
            <mxPoint x="120" y="500" as="sourcePoint" />
          </mxGeometry>
        </mxCell>
        <mxCell id="fmLMYGZMvI3gfzhZE83x-58" value="Change Symbol In Cell" style="whiteSpace=wrap;html=1;align=center;verticalAlign=middle;treeFolding=1;treeMoving=1;newEdgeStyle={&quot;edgeStyle&quot;:&quot;elbowEdgeStyle&quot;,&quot;startArrow&quot;:&quot;none&quot;,&quot;endArrow&quot;:&quot;none&quot;};rounded=0;" vertex="1" parent="fmLMYGZMvI3gfzhZE83x-3">
          <mxGeometry x="80" y="530" width="100" height="60" as="geometry" />
        </mxCell>
        <mxCell id="fmLMYGZMvI3gfzhZE83x-59" value="" style="edgeStyle=elbowEdgeStyle;rounded=0;orthogonalLoop=1;jettySize=auto;html=1;elbow=vertical;startArrow=none;endArrow=none;" edge="1" target="fmLMYGZMvI3gfzhZE83x-60" source="fmLMYGZMvI3gfzhZE83x-49" parent="fmLMYGZMvI3gfzhZE83x-3">
          <mxGeometry relative="1" as="geometry">
            <mxPoint x="120" y="500" as="sourcePoint" />
          </mxGeometry>
        </mxCell>
        <mxCell id="fmLMYGZMvI3gfzhZE83x-60" value="Check Symbol Allowed" style="whiteSpace=wrap;html=1;align=center;verticalAlign=middle;treeFolding=1;treeMoving=1;newEdgeStyle={&quot;edgeStyle&quot;:&quot;elbowEdgeStyle&quot;,&quot;startArrow&quot;:&quot;none&quot;,&quot;endArrow&quot;:&quot;none&quot;};rounded=0;" vertex="1" parent="fmLMYGZMvI3gfzhZE83x-3">
          <mxGeometry x="520" y="530" width="100" height="60" as="geometry" />
        </mxCell>
        <mxCell id="fmLMYGZMvI3gfzhZE83x-61" value="" style="edgeStyle=elbowEdgeStyle;rounded=0;orthogonalLoop=1;jettySize=auto;html=1;elbow=vertical;startArrow=none;endArrow=none;" edge="1" target="fmLMYGZMvI3gfzhZE83x-62" source="fmLMYGZMvI3gfzhZE83x-49" parent="fmLMYGZMvI3gfzhZE83x-3">
          <mxGeometry relative="1" as="geometry">
            <mxPoint x="80" y="500" as="sourcePoint" />
          </mxGeometry>
        </mxCell>
        <mxCell id="fmLMYGZMvI3gfzhZE83x-62" value="Add to not allowed Symbols" style="whiteSpace=wrap;html=1;align=center;verticalAlign=middle;treeFolding=1;treeMoving=1;newEdgeStyle={&quot;edgeStyle&quot;:&quot;elbowEdgeStyle&quot;,&quot;startArrow&quot;:&quot;none&quot;,&quot;endArrow&quot;:&quot;none&quot;};rounded=0;" vertex="1" parent="fmLMYGZMvI3gfzhZE83x-3">
          <mxGeometry x="630" y="530" width="100" height="60" as="geometry" />
        </mxCell>
        <mxCell id="fmLMYGZMvI3gfzhZE83x-65" value="" style="edgeStyle=elbowEdgeStyle;rounded=0;orthogonalLoop=1;jettySize=auto;html=1;elbow=vertical;startArrow=none;endArrow=none;" edge="1" target="fmLMYGZMvI3gfzhZE83x-66" source="fmLMYGZMvI3gfzhZE83x-49" parent="fmLMYGZMvI3gfzhZE83x-3">
          <mxGeometry relative="1" as="geometry">
            <mxPoint x="80" y="500" as="sourcePoint" />
          </mxGeometry>
        </mxCell>
        <mxCell id="fmLMYGZMvI3gfzhZE83x-66" value="Update Cell" style="whiteSpace=wrap;html=1;align=center;verticalAlign=middle;treeFolding=1;treeMoving=1;newEdgeStyle={&quot;edgeStyle&quot;:&quot;elbowEdgeStyle&quot;,&quot;startArrow&quot;:&quot;none&quot;,&quot;endArrow&quot;:&quot;none&quot;};rounded=0;" vertex="1" parent="fmLMYGZMvI3gfzhZE83x-3">
          <mxGeometry x="740" y="530" width="100" height="60" as="geometry" />
        </mxCell>
        <mxCell id="fmLMYGZMvI3gfzhZE83x-81" value="" style="edgeStyle=elbowEdgeStyle;rounded=0;orthogonalLoop=1;jettySize=auto;html=1;elbow=vertical;startArrow=none;endArrow=none;" edge="1" source="fmLMYGZMvI3gfzhZE83x-49" target="fmLMYGZMvI3gfzhZE83x-82" parent="fmLMYGZMvI3gfzhZE83x-3">
          <mxGeometry relative="1" as="geometry" />
        </mxCell>
        <mxCell id="fmLMYGZMvI3gfzhZE83x-82" value="Blocked Cell&amp;nbsp;(Class)" style="whiteSpace=wrap;html=1;align=center;verticalAlign=middle;treeFolding=1;treeMoving=1;newEdgeStyle={&quot;edgeStyle&quot;:&quot;elbowEdgeStyle&quot;,&quot;startArrow&quot;:&quot;none&quot;,&quot;endArrow&quot;:&quot;none&quot;};rounded=1;" vertex="1" parent="fmLMYGZMvI3gfzhZE83x-3">
          <mxGeometry x="890" y="530" width="100" height="60" as="geometry" />
        </mxCell>
        <mxCell id="fmLMYGZMvI3gfzhZE83x-83" value="" style="edgeStyle=elbowEdgeStyle;rounded=0;orthogonalLoop=1;jettySize=auto;html=1;elbow=vertical;startArrow=none;endArrow=none;" edge="1" target="fmLMYGZMvI3gfzhZE83x-84" source="fmLMYGZMvI3gfzhZE83x-82" parent="fmLMYGZMvI3gfzhZE83x-3">
          <mxGeometry relative="1" as="geometry">
            <mxPoint x="-510" y="460" as="sourcePoint" />
          </mxGeometry>
        </mxCell>
        <mxCell id="fmLMYGZMvI3gfzhZE83x-84" value="Init" style="whiteSpace=wrap;html=1;align=center;verticalAlign=middle;treeFolding=1;treeMoving=1;newEdgeStyle={&quot;edgeStyle&quot;:&quot;elbowEdgeStyle&quot;,&quot;startArrow&quot;:&quot;none&quot;,&quot;endArrow&quot;:&quot;none&quot;};rounded=0;" vertex="1" parent="fmLMYGZMvI3gfzhZE83x-3">
          <mxGeometry x="890" y="630" width="100" height="60" as="geometry" />
        </mxCell>
        <mxCell id="fmLMYGZMvI3gfzhZE83x-87" value="" style="edgeStyle=elbowEdgeStyle;rounded=0;orthogonalLoop=1;jettySize=auto;html=1;elbow=vertical;startArrow=none;endArrow=none;" edge="1" target="fmLMYGZMvI3gfzhZE83x-88" source="fmLMYGZMvI3gfzhZE83x-82" parent="fmLMYGZMvI3gfzhZE83x-3">
          <mxGeometry relative="1" as="geometry">
            <mxPoint x="210" y="560" as="sourcePoint" />
          </mxGeometry>
        </mxCell>
        <mxCell id="fmLMYGZMvI3gfzhZE83x-88" value="Check Symbol Allowed" style="whiteSpace=wrap;html=1;align=center;verticalAlign=middle;treeFolding=1;treeMoving=1;newEdgeStyle={&quot;edgeStyle&quot;:&quot;elbowEdgeStyle&quot;,&quot;startArrow&quot;:&quot;none&quot;,&quot;endArrow&quot;:&quot;none&quot;};rounded=0;" vertex="1" parent="fmLMYGZMvI3gfzhZE83x-3">
          <mxGeometry x="1000" y="630" width="100" height="60" as="geometry" />
        </mxCell>
        <mxCell id="fmLMYGZMvI3gfzhZE83x-89" value="" style="edgeStyle=elbowEdgeStyle;rounded=0;orthogonalLoop=1;jettySize=auto;html=1;elbow=vertical;startArrow=none;endArrow=none;" edge="1" source="fmLMYGZMvI3gfzhZE83x-50" target="fmLMYGZMvI3gfzhZE83x-90" parent="fmLMYGZMvI3gfzhZE83x-3">
          <mxGeometry relative="1" as="geometry" />
        </mxCell>
        <mxCell id="fmLMYGZMvI3gfzhZE83x-90" value="Init" style="whiteSpace=wrap;html=1;align=center;verticalAlign=middle;treeFolding=1;treeMoving=1;newEdgeStyle={&quot;edgeStyle&quot;:&quot;elbowEdgeStyle&quot;,&quot;startArrow&quot;:&quot;none&quot;,&quot;endArrow&quot;:&quot;none&quot;};rounded=0;" vertex="1" parent="fmLMYGZMvI3gfzhZE83x-3">
          <mxGeometry x="1270" y="530" width="100" height="60" as="geometry" />
        </mxCell>
        <mxCell id="fmLMYGZMvI3gfzhZE83x-91" value="" style="edgeStyle=elbowEdgeStyle;rounded=0;orthogonalLoop=1;jettySize=auto;html=1;elbow=vertical;startArrow=none;endArrow=none;" edge="1" target="fmLMYGZMvI3gfzhZE83x-92" source="fmLMYGZMvI3gfzhZE83x-50" parent="fmLMYGZMvI3gfzhZE83x-3">
          <mxGeometry relative="1" as="geometry">
            <mxPoint x="620" y="500" as="sourcePoint" />
          </mxGeometry>
        </mxCell>
        <mxCell id="fmLMYGZMvI3gfzhZE83x-92" value="Matches Pattern" style="whiteSpace=wrap;html=1;align=center;verticalAlign=middle;treeFolding=1;treeMoving=1;newEdgeStyle={&quot;edgeStyle&quot;:&quot;elbowEdgeStyle&quot;,&quot;startArrow&quot;:&quot;none&quot;,&quot;endArrow&quot;:&quot;none&quot;};rounded=0;" vertex="1" parent="fmLMYGZMvI3gfzhZE83x-3">
          <mxGeometry x="1380" y="530" width="100" height="60" as="geometry" />
        </mxCell>
        <mxCell id="fmLMYGZMvI3gfzhZE83x-93" value="" style="edgeStyle=elbowEdgeStyle;rounded=0;orthogonalLoop=1;jettySize=auto;html=1;elbow=vertical;startArrow=none;endArrow=none;" edge="1" target="fmLMYGZMvI3gfzhZE83x-94" source="fmLMYGZMvI3gfzhZE83x-50" parent="fmLMYGZMvI3gfzhZE83x-3">
          <mxGeometry relative="1" as="geometry">
            <mxPoint x="620" y="500" as="sourcePoint" />
          </mxGeometry>
        </mxCell>
        <mxCell id="fmLMYGZMvI3gfzhZE83x-94" value="Get Pattern Sequence" style="whiteSpace=wrap;html=1;align=center;verticalAlign=middle;treeFolding=1;treeMoving=1;newEdgeStyle={&quot;edgeStyle&quot;:&quot;elbowEdgeStyle&quot;,&quot;startArrow&quot;:&quot;none&quot;,&quot;endArrow&quot;:&quot;none&quot;};rounded=0;" vertex="1" parent="fmLMYGZMvI3gfzhZE83x-3">
          <mxGeometry x="1160" y="530" width="100" height="60" as="geometry" />
        </mxCell>
        <mxCell id="fmLMYGZMvI3gfzhZE83x-95" value="" style="edgeStyle=elbowEdgeStyle;elbow=vertical;sourcePerimeterSpacing=0;targetPerimeterSpacing=0;startArrow=none;endArrow=none;rounded=0;curved=0;" edge="1" target="fmLMYGZMvI3gfzhZE83x-96" source="fmLMYGZMvI3gfzhZE83x-10" parent="fmLMYGZMvI3gfzhZE83x-3">
          <mxGeometry relative="1" as="geometry">
            <mxPoint x="70" y="285" as="sourcePoint" />
          </mxGeometry>
        </mxCell>
        <mxCell id="fmLMYGZMvI3gfzhZE83x-96" value="Pattern (Class)" style="whiteSpace=wrap;html=1;align=center;verticalAlign=middle;treeFolding=1;treeMoving=1;newEdgeStyle={&quot;edgeStyle&quot;:&quot;elbowEdgeStyle&quot;,&quot;startArrow&quot;:&quot;none&quot;,&quot;endArrow&quot;:&quot;none&quot;};rounded=1;" vertex="1" parent="fmLMYGZMvI3gfzhZE83x-3">
          <mxGeometry x="830" y="290" width="100" height="60" as="geometry" />
        </mxCell>
        <mxCell id="fmLMYGZMvI3gfzhZE83x-97" value="" style="edgeStyle=elbowEdgeStyle;elbow=vertical;sourcePerimeterSpacing=0;targetPerimeterSpacing=0;startArrow=none;endArrow=none;rounded=0;curved=0;" edge="1" target="fmLMYGZMvI3gfzhZE83x-98" source="fmLMYGZMvI3gfzhZE83x-10" parent="fmLMYGZMvI3gfzhZE83x-3">
          <mxGeometry relative="1" as="geometry">
            <mxPoint x="70" y="285" as="sourcePoint" />
          </mxGeometry>
        </mxCell>
        <mxCell id="fmLMYGZMvI3gfzhZE83x-98" value="Cell (Pattern)" style="whiteSpace=wrap;html=1;align=center;verticalAlign=middle;treeFolding=1;treeMoving=1;newEdgeStyle={&quot;edgeStyle&quot;:&quot;elbowEdgeStyle&quot;,&quot;startArrow&quot;:&quot;none&quot;,&quot;endArrow&quot;:&quot;none&quot;};rounded=1;" vertex="1" parent="fmLMYGZMvI3gfzhZE83x-3">
          <mxGeometry x="610" y="290" width="100" height="60" as="geometry" />
        </mxCell>
        <mxCell id="fmLMYGZMvI3gfzhZE83x-99" value="" style="endArrow=none;html=1;rounded=0;exitX=1;exitY=0.5;exitDx=0;exitDy=0;entryX=0;entryY=0.5;entryDx=0;entryDy=0;" edge="1" parent="fmLMYGZMvI3gfzhZE83x-3" source="fmLMYGZMvI3gfzhZE83x-48" target="fmLMYGZMvI3gfzhZE83x-96">
          <mxGeometry width="50" height="50" relative="1" as="geometry">
            <mxPoint x="830" y="440" as="sourcePoint" />
            <mxPoint x="880" y="390" as="targetPoint" />
          </mxGeometry>
        </mxCell>
        <mxCell id="fmLMYGZMvI3gfzhZE83x-100" value="" style="endArrow=none;html=1;rounded=0;entryX=0;entryY=0.5;entryDx=0;entryDy=0;exitX=1;exitY=0.5;exitDx=0;exitDy=0;" edge="1" parent="fmLMYGZMvI3gfzhZE83x-3" source="fmLMYGZMvI3gfzhZE83x-98" target="fmLMYGZMvI3gfzhZE83x-48">
          <mxGeometry width="50" height="50" relative="1" as="geometry">
            <mxPoint x="620" y="430" as="sourcePoint" />
            <mxPoint x="670" y="380" as="targetPoint" />
          </mxGeometry>
        </mxCell>
        <mxCell id="fmLMYGZMvI3gfzhZE83x-101" value="" style="endArrow=none;html=1;rounded=0;entryX=0;entryY=0.5;entryDx=0;entryDy=0;exitX=1;exitY=0.5;exitDx=0;exitDy=0;" edge="1" parent="fmLMYGZMvI3gfzhZE83x-3" source="fmLMYGZMvI3gfzhZE83x-14" target="fmLMYGZMvI3gfzhZE83x-26">
          <mxGeometry width="50" height="50" relative="1" as="geometry">
            <mxPoint x="610" y="350" as="sourcePoint" />
            <mxPoint x="660" y="300" as="targetPoint" />
          </mxGeometry>
        </mxCell>
        <mxCell id="fmLMYGZMvI3gfzhZE83x-102" value="" style="endArrow=none;html=1;rounded=0;entryX=0;entryY=0.5;entryDx=0;entryDy=0;exitX=1;exitY=0.5;exitDx=0;exitDy=0;" edge="1" parent="fmLMYGZMvI3gfzhZE83x-3" source="fmLMYGZMvI3gfzhZE83x-16" target="fmLMYGZMvI3gfzhZE83x-14">
          <mxGeometry width="50" height="50" relative="1" as="geometry">
            <mxPoint x="480" y="350" as="sourcePoint" />
            <mxPoint x="530" y="300" as="targetPoint" />
          </mxGeometry>
        </mxCell>
      </root>
    </mxGraphModel>
  </diagram>
</mxfile>
